<?xml version="1.0" encoding="iso-8859-1"?>
<!-- Generator: Adobe Illustrator 18.0.0, SVG Export Plug-In . SVG Version: 6.00 Build 0)  -->
<!DOCTYPE svg PUBLIC "-//W3C//DTD SVG 1.1//EN" "http://www.w3.org/Graphics/SVG/1.1/DTD/svg11.dtd">
<svg version="1.1" id="Capa_1" xmlns="http://www.w3.org/2000/svg" xmlns:xlink="http://www.w3.org/1999/xlink" x="0px" y="0px"
	 viewBox="0 0 449.999 449.999" style="enable-background:new 0 0 449.999 449.999;" xml:space="preserve">
<path style="stroke:#000000;stroke-width:0;stroke-linecap:round;stroke-linejoin:round;" d="M449.977,171.981
	c-0.359-6.783-5.064-11.273-10.509-10.028l-39.785,9.096c-4.115,0.941-7.471,4.892-8.709,9.694
	c-17.478-25.176-48.266-65.94-70.161-75.101c-3.031-1.246-21.897-7.461-95.814-7.461s-92.782,6.215-95.878,7.488
	c-21.849,9.141-52.623,49.898-70.097,75.073c-1.239-4.802-4.594-8.752-8.709-9.693l-39.785-9.096
	c-5.444-1.245-10.149,3.245-10.509,10.028c-0.362,6.784,3.76,13.292,9.202,14.537l35.292,8.069
	c-12.303,9.173-20.271,23.837-20.271,40.363l5.031,86.86c0,16.574,13.436,30.009,30.01,30.009h18.047
	c16.574,0,30.009-13.435,30.009-30.009l-0.589-6.358h236.492l-0.589,6.358c0,16.574,13.435,30.009,30.009,30.009h18.047
	c16.574,0,30.01-13.435,30.01-30.009l5.031-86.86c0-16.526-7.968-31.189-20.271-40.363l35.292-8.069
	C446.217,185.273,450.339,178.765,449.977,171.981z M137.419,126.198c1.735-0.564,19.909-5.877,87.581-5.877
	c67.535,0,85.772,5.292,87.57,5.874c13.097,5.69,35.568,32.828,54.033,58.438H83.394
	C101.881,158.991,124.376,131.822,137.419,126.198z M267.265,300.764h-84.531c-3.892,0-7.045-3.154-7.045-7.044
	c0-3.891,3.153-7.044,7.045-7.044h84.531c3.892,0,7.045,3.154,7.045,7.044C274.31,297.61,271.157,300.764,267.265,300.764z
	 M336.099,263.194c0,0-14.089-8.116-31.196-10.096H136.442c-17.107,1.98-31.196,10.096-31.196,10.096
	c-39.247,10.064-49.914-22.139-49.914-22.139h330.682C386.013,241.055,375.346,273.257,336.099,263.194z"/>
<g>
</g>
<g>
</g>
<g>
</g>
<g>
</g>
<g>
</g>
<g>
</g>
<g>
</g>
<g>
</g>
<g>
</g>
<g>
</g>
<g>
</g>
<g>
</g>
<g>
</g>
<g>
</g>
<g>
</g>
</svg>
